<?xml version="1.0" standalone="no"?>
<!DOCTYPE svg PUBLIC "-//W3C//DTD SVG 20010904//EN"
 "http://www.w3.org/TR/2001/REC-SVG-20010904/DTD/svg10.dtd">
<svg version="1.0" xmlns="http://www.w3.org/2000/svg"
 width="569.000000pt" height="569.000000pt" viewBox="0 0 569.000000 569.000000"
 preserveAspectRatio="xMidYMid meet">
<metadata>
Created by potrace 1.11, written by Peter Selinger 2001-2013
</metadata>
<g transform="translate(0.000000,569.000000) scale(0.100000,-0.100000)"
fill="#000000" stroke="none">
<path d="M2451 5620 c-24 -11 -55 -32 -68 -46 -38 -41 -55 -80 -67 -154 -2 -8
1 -32 6 -54 8 -34 6 -41 -12 -53 -16 -12 -20 -23 -17 -48 7 -48 -18 -92 -60
-106 -41 -13 -52 -6 -60 42 -16 105 -117 187 -225 184 -118 -4 -199 -75 -239
-211 -33 -111 -104 -182 -199 -199 -89 -16 -176 -80 -206 -151 -57 -136 21
-287 163 -318 30 -7 31 -9 17 -23 -9 -10 -30 -15 -57 -14 -71 4 -80 2 -88 -11
-15 -22 -10 -38 20 -66 24 -23 58 -72 49 -72 -2 0 -27 9 -56 20 -157 60 -308
-49 -306 -219 1 -56 7 -79 43 -153 31 -63 43 -99 43 -132 0 -44 -16 -110 -32
-131 -68 -93 -84 -204 -40 -289 46 -90 160 -144 253 -119 32 9 39 8 47 -7 19
-36 -61 -128 -129 -149 -70 -21 -137 -93 -149 -161 -16 -98 6 -170 79 -249 55
-61 80 -113 81 -171 0 -49 -9 -107 -20 -125 -19 -30 -21 -128 -4 -176 64 -190
321 -213 417 -38 52 96 32 206 -53 297 -51 54 -82 117 -86 173 -3 37 27 174
41 189 3 3 16 -8 29 -25 29 -36 28 -66 -5 -118 -25 -40 -23 -60 7 -76 13 -7
26 -6 46 5 42 21 89 18 113 -8 32 -36 34 -55 13 -108 l-20 -50 21 -21 c20 -20
21 -20 52 -1 65 38 111 36 145 -7 12 -16 11 -98 -2 -119 -8 -13 20 -42 39 -42
8 0 34 14 59 31 40 29 47 30 78 20 46 -15 67 -54 61 -112 -4 -41 -2 -46 22
-57 24 -11 29 -9 58 22 44 48 75 58 115 39 34 -17 42 -31 49 -88 5 -39 24 -65
49 -65 7 0 27 20 44 44 33 49 56 61 100 51 36 -8 47 -22 63 -75 21 -74 65 -80
93 -14 21 49 37 64 76 69 44 6 73 -15 97 -70 16 -36 25 -45 44 -45 23 0 36 15
43 49 21 102 121 123 169 35 32 -59 86 -52 90 13 4 48 16 81 33 88 65 27 71
26 123 -21 42 -37 53 -43 69 -34 21 11 23 18 20 63 -3 53 10 82 44 101 30 16
37 16 67 3 19 -8 40 -21 48 -30 37 -45 92 -2 72 55 -17 48 -13 67 18 98 33 34
72 34 128 -1 35 -22 35 -22 55 -2 19 19 19 22 4 67 -22 63 -20 83 9 111 28 29
55 31 114 11 35 -13 42 -13 55 0 20 19 26 18 21 -7 -7 -37 -44 -100 -81 -138
-106 -108 -112 -254 -15 -351 118 -118 298 -81 372 75 22 46 22 112 0 195 -36
131 -22 197 57 286 69 78 87 118 86 199 0 100 -43 168 -130 210 -19 9 -34 20
-34 24 0 5 -18 27 -40 49 -24 24 -40 49 -40 64 0 23 2 24 88 24 88 0 89 0 139
39 62 49 95 114 95 191 1 43 -7 69 -43 141 -38 77 -44 95 -44 153 1 40 7 77
16 95 9 17 29 55 45 85 72 139 25 282 -111 340 -55 24 -127 21 -183 -6 -54
-27 -56 -10 -7 45 41 45 45 78 13 90 -13 5 -27 6 -31 4 -19 -11 -80 -4 -95 11
-15 15 -15 16 2 16 25 0 86 30 118 59 44 39 71 105 70 172 -2 114 -68 190
-204 233 -63 20 -95 37 -126 66 -41 39 -69 82 -75 117 -31 163 -127 251 -265
241 -104 -7 -192 -86 -208 -185 -8 -49 -31 -60 -80 -37 -35 17 -44 37 -44 102
0 36 -4 45 -20 49 -16 4 -19 10 -13 27 13 36 4 124 -16 164 -27 52 -81 98
-133 113 -77 22 -134 13 -233 -35 -81 -40 -96 -44 -148 -41 -39 2 -76 13 -110
31 -29 15 -65 34 -82 43 -48 25 -152 25 -204 1z m118 -147 c11 -10 24 -32 27
-49 5 -26 2 -32 -16 -37 -12 -3 -24 -15 -27 -26 -11 -41 -75 -35 -95 10 -7 16
-16 29 -20 29 -11 0 5 43 25 67 25 28 75 31 106 6z m677 -48 c12 -49 -51 -120
-83 -93 -7 5 -11 14 -8 18 9 14 -27 42 -46 37 -14 -4 -19 0 -19 17 0 59 74 98
122 64 16 -11 31 -30 34 -43z m-1231 -211 c26 -30 28 -59 9 -89 -24 -37 -66
-47 -102 -25 -55 34 -55 106 1 134 38 18 65 13 92 -20z m1798 5 c43 -53 -7
-137 -74 -124 -63 12 -87 83 -43 130 22 23 31 27 62 22 20 -4 45 -16 55 -28z
m-758 -234 c55 -9 193 -44 213 -54 9 -4 37 -18 62 -30 25 -12 51 -31 59 -43
17 -27 25 -75 15 -96 -4 -10 -8 -19 -9 -22 -1 -3 -8 -18 -15 -34 -16 -32 -12
-37 71 -86 46 -27 49 -30 101 -78 l36 -34 41 37 c84 76 153 61 237 -53 177
-239 260 -497 255 -795 -1 -79 -19 -129 -54 -152 -29 -19 -93 -26 -124 -14
-31 11 -42 -7 -59 -97 -2 -12 -17 -54 -33 -93 l-29 -71 43 -25 c65 -38 80 -60
80 -114 0 -39 -8 -59 -45 -116 -40 -63 -193 -228 -261 -281 -103 -83 -235
-154 -373 -203 -105 -37 -170 -43 -208 -17 -28 18 -63 80 -53 95 3 5 1 12 -5
16 -6 4 -8 10 -5 15 7 11 -22 33 -34 26 -9 -6 -161 -9 -216 -4 -28 3 -31 0
-42 -45 -21 -88 -55 -120 -125 -119 -44 1 -133 25 -195 53 -24 10 -64 28 -90
40 -84 37 -235 144 -319 225 -88 87 -164 176 -164 193 0 6 -4 11 -9 11 -15 0
-52 100 -46 123 13 47 31 70 75 95 25 14 46 26 48 28 1 1 -10 35 -27 76 -16
40 -32 90 -35 109 -3 20 -10 48 -15 62 -9 22 -14 25 -38 18 -66 -17 -126 1
-155 47 -21 34 -23 47 -22 177 1 126 7 167 39 305 25 111 123 316 195 411 78
102 105 123 159 121 32 -1 111 -45 111 -62 0 -24 34 -12 86 31 32 27 64 54 71
59 7 6 15 10 18 10 3 0 21 10 40 23 l33 23 -18 39 c-50 111 -16 170 126 219
134 45 260 63 424 61 80 -2 163 -6 185 -10z m-1510 -220 c46 -45 27 -93 -25
-65 -15 8 -24 6 -41 -11 -11 -11 -18 -27 -15 -35 7 -19 -8 -18 -26 4 -35 39
-30 88 11 119 26 20 70 15 96 -12z m638 4 c26 -30 25 -78 -3 -101 -33 -27 -74
-23 -99 8 -28 36 -26 68 5 93 34 27 75 27 97 0z m1437 1 c11 -11 20 -33 20
-50 0 -17 -9 -39 -20 -50 -42 -42 -120 -12 -120 47 0 61 78 95 120 53z m614 6
c44 -18 60 -61 39 -104 -19 -40 -39 -47 -38 -15 0 35 -27 51 -64 37 -16 -7
-33 -9 -38 -5 -18 11 6 70 35 85 33 19 27 19 66 2z m276 -596 c17 -32 11 -60
-20 -92 -25 -24 -36 -29 -58 -23 -15 3 -33 12 -41 20 -11 11 -10 16 10 32 56
45 68 61 62 83 -5 20 -4 21 15 11 12 -6 26 -20 32 -31z m-3267 2 c4 -17 16
-33 32 -40 25 -12 54 -57 42 -68 -3 -3 -22 -6 -43 -7 -28 -1 -42 5 -60 27 -28
32 -29 46 -9 86 19 38 31 38 38 2z m65 -622 c1 0 2 -9 2 -20 0 -35 -22 -67
-60 -89 -31 -17 -40 -19 -49 -8 -16 20 -20 59 -8 82 21 41 40 47 115 35z
m3185 -21 c18 -23 22 -65 8 -88 -8 -12 -14 -12 -40 -1 -55 22 -73 57 -62 119
3 12 79 -12 94 -30z m-2743 -149 c16 -31 11 -60 -15 -85 -33 -34 -67 -32 -98
5 -26 30 -27 59 -3 89 27 34 96 29 116 -9z m2311 14 c28 -25 32 -50 14 -83
-29 -57 -110 -49 -126 11 -10 39 -2 62 29 80 30 18 57 16 83 -8z m-2734 -394
c30 -11 53 -45 53 -79 0 -28 -46 -71 -75 -71 -87 0 -112 117 -32 150 12 5 22
9 23 9 1 1 15 -4 31 -9z m3072 -5 c48 -24 56 -81 16 -120 -44 -45 -118 -25
-108 28 3 16 1 27 -6 27 -32 0 0 58 39 73 24 9 29 8 59 -8z m-231 -285 c0 -19
-2 -28 -5 -20 -3 8 -15 27 -25 42 -20 30 -26 76 -13 99 11 17 43 -73 43 -121z
m-1268 -160 c46 -46 18 -120 -47 -120 -65 0 -96 69 -51 117 27 29 71 30 98 3z
m-1405 -205 c27 -26 31 -51 14 -88 -35 -76 -157 -36 -144 46 11 65 84 89 130
42z m2779 4 c46 -36 32 -108 -25 -128 -64 -22 -124 39 -99 100 22 52 77 65
124 28z"/>
<path d="M1504 2000 c-90 -39 -144 -124 -138 -221 4 -80 36 -141 102 -197 80
-68 107 -120 104 -201 -7 -233 -7 -236 11 -268 44 -82 131 -133 218 -128 122
6 207 89 217 212 6 83 -26 153 -103 219 -92 78 -121 163 -100 289 16 98 4 161
-42 222 -56 76 -181 110 -269 73z m139 -150 c31 -37 28 -75 -9 -107 -33 -30
-69 -29 -99 2 -49 48 -18 128 52 133 24 2 37 -5 56 -28z m214 -612 c30 -28 30
-72 0 -104 -31 -33 -69 -37 -101 -10 -58 48 -31 136 42 136 23 0 44 -8 59 -22z"/>
<path d="M3974 1995 c-87 -44 -140 -138 -130 -232 3 -26 8 -74 11 -105 11 -92
-13 -147 -102 -237 -103 -104 -128 -173 -99 -274 16 -55 68 -127 92 -127 8 0
14 -4 14 -10 0 -5 3 -9 8 -9 4 1 9 0 12 -1 36 -14 106 -18 150 -9 127 26 202
176 162 322 -25 88 9 179 98 263 71 68 99 115 107 184 12 100 -43 200 -129
235 -61 25 -145 25 -194 0z m152 -138 c36 -32 36 -83 -1 -114 -44 -39 -95 -26
-119 30 -32 76 57 138 120 84z m-208 -620 c27 -25 28 -66 2 -99 -26 -33 -62
-40 -98 -18 -54 33 -46 111 12 135 34 15 51 11 84 -18z"/>
<path d="M2823 1668 c-4 -7 -15 -31 -23 -53 -28 -73 -107 -88 -158 -31 -59 67
-95 56 -95 -28 0 -96 -61 -138 -144 -97 -34 16 -48 19 -63 11 -24 -13 -25 -31
-5 -70 23 -44 24 -72 6 -103 -22 -38 -47 -51 -99 -48 -81 4 -92 -30 -32 -95
22 -24 40 -50 40 -57 0 -50 -45 -107 -85 -107 -24 0 -54 -36 -48 -58 4 -16 0
-19 -24 -17 -37 2 -111 -30 -146 -63 -132 -125 -62 -357 120 -397 18 -3 35 -6
38 -6 2 0 24 -6 47 -15 83 -29 143 -94 169 -185 38 -131 126 -200 249 -195 74
3 130 31 173 88 28 36 53 119 43 143 -3 9 -2 14 3 11 5 -3 12 -18 16 -33 14
-56 47 -69 80 -33 10 11 15 20 10 20 -4 0 -2 6 4 13 6 8 7 18 3 22 -4 5 -2 5
4 2 6 -3 11 -19 12 -35 1 -41 25 -91 61 -130 87 -93 236 -95 329 -4 35 34 52
66 76 139 10 28 30 69 45 90 32 44 110 90 167 98 60 9 140 52 174 93 78 94 70
240 -18 317 -34 30 -123 66 -152 60 -17 -3 -20 0 -15 16 7 23 -19 59 -42 59
-8 0 -27 7 -43 15 -26 13 -35 31 -46 94 -1 7 18 35 42 61 40 42 44 51 34 69
-9 18 -19 21 -67 19 -51 -2 -57 0 -85 31 -33 37 -34 66 -4 133 16 37 16 38 -7
53 -21 14 -28 13 -75 -7 -51 -22 -53 -22 -86 -4 -42 22 -54 48 -51 109 2 43
-1 50 -22 60 -21 9 -28 6 -61 -27 -20 -21 -46 -42 -57 -46 -29 -11 -85 12 -99
40 -7 14 -19 39 -27 55 -16 32 -52 45 -66 23z m112 -413 c124 -32 222 -147
238 -279 6 -46 -11 -132 -35 -178 -101 -193 -364 -233 -516 -77 -69 70 -97
148 -89 249 16 201 206 335 402 285z m-810 -487 c37 -17 54 -55 43 -96 -22
-80 -149 -61 -148 22 1 35 27 71 56 79 10 2 20 5 21 6 1 0 14 -4 28 -11z
m1554 -49 c12 -35 -5 -82 -34 -93 -57 -21 -106 6 -111 61 -9 93 114 121 145
32z m-1131 -415 c0 -46 39 -57 72 -22 18 19 22 21 31 8 14 -22 2 -73 -24 -92
-29 -23 -66 -22 -97 1 -32 25 -35 95 -5 117 24 18 23 19 23 -12z m646 -12 c27
-52 -19 -115 -79 -110 -35 3 -68 41 -68 78 0 42 9 47 37 21 31 -29 76 -15 76
24 0 31 14 25 34 -13z"/>
</g>
</svg>
